<svg width="300" height="300" viewBox="0 0 300 300" fill="none" xmlns="http://www.w3.org/2000/svg">
<path d="M112.5 67.5V112.5H67.5V67.5H112.5ZM135 45H45V135H135V45ZM112.5 187.5V232.5H67.5V187.5H112.5ZM135 165H45V255H135V165ZM232.5 67.5V112.5H187.5V67.5H232.5ZM255 45H165V135H255V45ZM165 165H187.5V187.5H165V165ZM187.5 187.5H210V210H187.5V187.5ZM210 165H232.5V187.5H210V165ZM165 210H187.5V232.5H165V210ZM187.5 232.5H210V255H187.5V232.5ZM210 210H232.5V232.5H210V210ZM232.5 187.5H255V210H232.5V187.5ZM232.5 232.5H255V255H232.5V232.5ZM300 75H282V17.1429H225V0H300V75ZM300 300V225H282V282.857H225V300H300ZM0 300H75V282.857H17.1429V225H0V300ZM0 0V75H17.1429V17.1429H75V0H0Z" fill="black"/>
</svg>
