<svg width="23" height="18" viewBox="0 0 23 18" fill="none" xmlns="http://www.w3.org/2000/svg">
<path d="M10.395 4.01812C9.7869 3.36156 8.93753 3 8.00003 3C7.05753 3 6.20534 3.35937 5.60003 4.01187C4.98815 4.67156 4.69003 5.56812 4.76003 6.53625C4.89878 8.44625 6.35222 10 8.00003 10C9.64784 10 11.0988 8.44656 11.2397 6.53687C11.3107 5.5775 11.0107 4.68281 10.395 4.01812Z" fill="white"/>
<path d="M13.5002 16.999H2.50018C2.3562 17.0009 2.21361 16.9706 2.08279 16.9105C1.95197 16.8503 1.83621 16.7617 1.74393 16.6512C1.5408 16.4084 1.45893 16.0768 1.51955 15.7415C1.7833 14.2784 2.60643 13.0493 3.90018 12.1865C5.04955 11.4206 6.50549 10.999 8.00018 10.999C9.49486 10.999 10.9508 11.4209 12.1002 12.1865C13.3939 13.049 14.217 14.2781 14.4808 15.7412C14.5414 16.0765 14.4595 16.4081 14.2564 16.6509C14.1642 16.7615 14.0484 16.8501 13.9176 16.9103C13.7868 16.9706 13.6442 17.0009 13.5002 16.999V16.999Z" fill="white"/>
<path d="M16.3799 9.91016H14.7588V11.6582H14.251V9.91016H12.6201V9.51953H14.251V7.77148H14.7588V9.51953H16.3799V9.91016Z" fill="white"/>
</svg>
