<svg width="17" height="16" viewBox="0 0 17 16" fill="none" xmlns="http://www.w3.org/2000/svg">
<path d="M10.395 2.01812C9.7869 1.36156 8.93753 1 8.00003 1C7.05753 1 6.20534 1.35937 5.60003 2.01187C4.98815 2.67156 4.69003 3.56812 4.76003 4.53625C4.89878 6.44625 6.35222 8 8.00003 8C9.64784 8 11.0988 6.44656 11.2397 4.53687C11.3107 3.5775 11.0107 2.68281 10.395 2.01812Z" fill="white"/>
<path d="M13.5002 14.999H2.50018C2.3562 15.0009 2.21361 14.9706 2.08279 14.9105C1.95197 14.8503 1.83621 14.7617 1.74393 14.6512C1.5408 14.4084 1.45893 14.0768 1.51955 13.7415C1.7833 12.2784 2.60643 11.0493 3.90018 10.1865C5.04955 9.42059 6.50549 8.99902 8.00018 8.99902C9.49486 8.99902 10.9508 9.4209 12.1002 10.1865C13.3939 11.049 14.217 12.2781 14.4808 13.7412C14.5414 14.0765 14.4595 14.4081 14.2564 14.6509C14.1642 14.7615 14.0484 14.8501 13.9176 14.9103C13.7868 14.9706 13.6442 15.0009 13.5002 14.999Z" fill="white"/>
<path d="M14.1429 7.85714H12V7.14286H14.1429V5H14.8571V7.14286H17V7.85714H14.8571V10H14.1429V7.85714Z" fill="white"/>
</svg>
