<svg width="15" height="15" viewBox="0 0 15 15" fill="none" xmlns="http://www.w3.org/2000/svg">
<g clip-path="url(#clip0_1339_1591)">
<path d="M7.66289 2.96736C7.61927 2.92563 7.56124 2.90234 7.50088 2.90234C7.44052 2.90234 7.38248 2.92563 7.33887 2.96736L1.94531 8.11979C1.92241 8.14171 1.90418 8.16804 1.89175 8.19719C1.87931 8.22635 1.87291 8.25773 1.87295 8.28942L1.87207 13.1252C1.87207 13.3738 1.97084 13.6123 2.14666 13.7881C2.32247 13.9639 2.56093 14.0627 2.80957 14.0627H5.625C5.74932 14.0627 5.86855 14.0133 5.95645 13.9254C6.04436 13.8375 6.09375 13.7182 6.09375 13.5939V9.60954C6.09375 9.54738 6.11844 9.48777 6.1624 9.44381C6.20635 9.39986 6.26596 9.37517 6.32812 9.37517H8.67187C8.73403 9.37517 8.79365 9.39986 8.8376 9.44381C8.88155 9.48777 8.90625 9.54738 8.90625 9.60954V13.5939C8.90625 13.7182 8.95563 13.8375 9.04354 13.9254C9.13145 14.0133 9.25068 14.0627 9.375 14.0627H12.1893C12.4379 14.0627 12.6764 13.9639 12.8522 13.7881C13.028 13.6123 13.1268 13.3738 13.1268 13.1252V8.28942C13.1268 8.25773 13.1204 8.22635 13.108 8.19719C13.0955 8.16804 13.0773 8.14171 13.0544 8.11979L7.66289 2.96736Z" fill="#1BAFF9"/>
<path d="M14.3821 7.15381L12.1907 5.05732V1.87598C12.1907 1.75166 12.1413 1.63243 12.0534 1.54452C11.9655 1.45661 11.8463 1.40723 11.722 1.40723H10.3157C10.1914 1.40723 10.0722 1.45661 9.98427 1.54452C9.89637 1.63243 9.84698 1.75166 9.84698 1.87598V2.81348L8.15011 1.19102C7.99132 1.03047 7.75518 0.938477 7.50001 0.938477C7.24571 0.938477 7.01016 1.03047 6.85138 1.19131L0.619933 7.15322C0.437706 7.329 0.414855 7.61816 0.580675 7.80859C0.622315 7.85666 0.6733 7.89575 0.730528 7.92349C0.787756 7.95122 0.850029 7.96703 0.913558 7.96993C0.977087 7.97284 1.04054 7.96278 1.10006 7.94039C1.15958 7.91799 1.21392 7.88371 1.25978 7.83965L7.33888 2.03066C7.38249 1.98894 7.44053 1.96565 7.50089 1.96565C7.56125 1.96565 7.61928 1.98894 7.6629 2.03066L13.7426 7.83965C13.8321 7.92553 13.9521 7.9724 14.0762 7.96999C14.2002 7.96757 14.3183 7.91606 14.4044 7.82676C14.5843 7.64043 14.5693 7.33281 14.3821 7.15381Z" fill="#1BAFF9"/>
</g>
<defs>
<clipPath id="clip0_1339_1591">
<rect width="15" height="15" fill="white"/>
</clipPath>
</defs>
</svg>
