<svg width="20" height="20" viewBox="0 0 20 20" fill="none" xmlns="http://www.w3.org/2000/svg">
<path d="M11.25 8.76172H16.7187C16.7571 8.76172 16.7938 8.77694 16.8209 8.80405C16.8481 8.83115 16.8633 8.86792 16.8633 8.90625V16.25C16.8633 16.9099 16.6011 17.5428 16.1345 18.0095C15.6678 18.4761 15.0349 18.7383 14.375 18.7383H5.625C4.96507 18.7383 4.33216 18.4761 3.86552 18.0095C3.39888 17.5428 3.13672 16.9099 3.13672 16.25V3.75C3.13672 3.09007 3.39888 2.45716 3.86552 1.99052C4.33216 1.52388 4.96507 1.26172 5.625 1.26172H9.21875C9.25708 1.26172 9.29384 1.27695 9.32095 1.30405C9.34805 1.33116 9.36328 1.36792 9.36328 1.40625V6.875C9.36328 7.37539 9.56206 7.85528 9.91589 8.20911C10.2697 8.56294 10.7496 8.76172 11.25 8.76172ZM6.875 15.0117H13.125C13.2939 15.0117 13.4558 14.9446 13.5752 14.8252C13.6946 14.7058 13.7617 14.5439 13.7617 14.375C13.7617 14.2061 13.6946 14.0442 13.5752 13.9248C13.4558 13.8054 13.2939 13.7383 13.125 13.7383H6.875C6.70613 13.7383 6.54418 13.8054 6.42477 13.9248C6.30536 14.0442 6.23828 14.2061 6.23828 14.375C6.23828 14.5439 6.30536 14.7058 6.42477 14.8252C6.54418 14.9446 6.70613 15.0117 6.875 15.0117ZM6.875 11.8867H13.125C13.2939 11.8867 13.4558 11.8196 13.5752 11.7002C13.6946 11.5808 13.7617 11.4189 13.7617 11.25C13.7617 11.0811 13.6946 10.9192 13.5752 10.7998C13.4558 10.6804 13.2939 10.6133 13.125 10.6133H6.875C6.70613 10.6133 6.54418 10.6804 6.42477 10.7998C6.30536 10.9192 6.23828 11.0811 6.23828 11.25C6.23828 11.4189 6.30536 11.5808 6.42477 11.7002C6.54418 11.8196 6.70613 11.8867 6.875 11.8867Z" fill="white" stroke="#70CFFF" stroke-width="0.0234375"/>
<path d="M10.7499 1.75857L16.3675 7.3761L10.7499 1.75857ZM10.7499 1.75857C10.7499 1.75857 10.7499 1.75856 10.7499 1.75856M10.7499 1.75857L10.7499 1.75856M10.7499 1.75856C10.7406 1.74933 10.7288 1.74306 10.716 1.74052C10.7032 1.73798 10.6898 1.73929 10.6777 1.7443C10.6656 1.7493 10.6553 1.75777 10.648 1.76864C10.6407 1.7795 10.6368 1.79228 10.6367 1.80536V6.87604C10.6367 7.03869 10.7013 7.19468 10.8163 7.30969C10.9314 7.42471 11.0873 7.48932 11.25 7.48932H16.3207C16.3337 7.48927 16.3465 7.48534 16.3574 7.47804C16.3683 7.47074 16.3767 7.46039 16.3817 7.44829C16.3867 7.43619 16.3881 7.42288 16.3855 7.41004C16.383 7.3972 16.3767 7.3854 16.3675 7.37612L10.7499 1.75856Z" fill="white" stroke="#70CFFF" stroke-width="0.0234375"/>
</svg>
