<svg width="30" height="28" viewBox="0 0 30 28" fill="none" xmlns="http://www.w3.org/2000/svg">
<path d="M15 26.5L2.57625 14.5426C2.13406 14.117 1.91297 13.9042 1.84382 13.6233C1.77468 13.3425 1.87172 13.0514 2.06579 12.4691L4.27925 5.82877C4.63112 4.77315 4.80705 4.24535 5.20135 3.89161C5.59565 3.53788 6.13938 3.42006 7.22686 3.18441L14.1529 1.68357C14.5748 1.59214 14.7858 1.54642 15 1.54642C15.2142 1.54642 15.4252 1.59214 15.8471 1.68358L22.7728 3.1844C23.8603 3.42005 24.404 3.53788 24.7983 3.89161C25.1926 4.24534 25.3686 4.77314 25.7204 5.82875L27.9339 12.4691C28.128 13.0514 28.225 13.3425 28.1559 13.6233C28.0867 13.9042 27.8656 14.117 27.4234 14.5426L15 26.5ZM15 26.5L20.8332 12.0003M15 26.5L9.1665 12.0003M27.4998 13.667L20.8332 12.0003M20.8332 12.0003L18 2.15011M20.8332 12.0003H9.1665M11.9999 2.15011L9.1665 12.0003M9.1665 12.0003L2.49984 13.667" stroke="black" stroke-width="2" stroke-linecap="round"/>
</svg>
