<svg width="16" height="16" viewBox="0 0 16 16" fill="none" xmlns="http://www.w3.org/2000/svg">
<path fill-rule="evenodd" clip-rule="evenodd" d="M9.42246 2.2282L9.42377 2.24112L9.42612 2.26428C9.51144 3.04977 10.4311 3.43072 11.0469 2.93562L11.0649 2.92092L11.075 2.91271C11.471 2.5925 12.0445 2.6211 12.4067 2.97913L12.4159 2.9883L13.0115 3.58394L13.0207 3.59314C13.3787 3.95536 13.4073 4.52879 13.0871 4.92483L13.0789 4.9349L13.0642 4.95295C12.5691 5.56871 12.95 6.48838 13.7355 6.57371L13.7587 6.57607L13.7716 6.57738C14.2781 6.63101 14.6634 7.0567 14.6663 7.56599L14.6663 7.57899V8.42142L14.6663 8.43427C14.6634 8.94361 14.2781 9.36935 13.7716 9.42296L13.7588 9.42425L13.7359 9.42658C12.9503 9.51181 12.5693 10.4317 13.0645 11.0475L13.079 11.0652L13.0871 11.0751C13.4074 11.4712 13.3788 12.0447 13.0206 12.407L13.0116 12.416L12.4159 13.0117L12.4067 13.0209C12.0445 13.3789 11.4711 13.4075 11.075 13.0873L11.065 13.0791L11.0469 13.0644C10.4312 12.5693 9.51147 12.9503 9.42615 13.7357L9.42379 13.759L9.42245 13.7722C9.36879 14.2786 8.94315 14.6638 8.43392 14.6668L8.42076 14.6668H7.5785L7.5655 14.6668C7.05621 14.6638 6.63052 14.2786 6.57689 13.7721L6.57558 13.7592L6.57322 13.736C6.48789 12.9505 5.56823 12.5696 4.95247 13.0647L4.93439 13.0794L4.92431 13.0876C4.52826 13.4078 3.95484 13.3792 3.59263 13.0212L3.58341 13.012L2.98779 12.4164L2.97861 12.4072C2.62059 12.045 2.59199 11.4715 2.91219 11.0755L2.92041 11.0654L2.93513 11.0474C3.43023 10.4316 3.04928 9.51193 2.26379 9.42661L2.24063 9.42426L2.22772 9.42295C1.72125 9.36932 1.33599 8.94362 1.33302 8.43433L1.33301 8.42135V7.57906L1.33303 7.56593C1.33602 7.05669 1.72123 6.63104 2.22765 6.57738L2.24071 6.57606L2.26414 6.57368C3.04953 6.48829 3.43042 5.56874 2.93544 4.953L2.92053 4.93471L2.91216 4.92446C2.59204 4.52844 2.62063 3.95511 2.97857 3.5929L2.9879 3.58355L3.58344 2.98801L3.59266 2.97882C3.95487 2.6208 4.52829 2.59221 4.92434 2.9124L4.93447 2.92067L4.95241 2.9353C5.56819 3.43051 6.48801 3.04951 6.57326 2.26392L6.57559 2.24103L6.57688 2.22827C6.63048 1.72175 7.05623 1.33644 7.56558 1.33351L7.5784 1.3335H8.42086L8.43384 1.33351C8.94313 1.33648 9.36883 1.72173 9.42246 2.2282ZM7.99967 10.6668C9.47243 10.6668 10.6663 9.47292 10.6663 8.00016C10.6663 6.5274 9.47243 5.3335 7.99967 5.3335C6.52691 5.3335 5.33301 6.5274 5.33301 8.00016C5.33301 9.47292 6.52691 10.6668 7.99967 10.6668Z" fill="white"/>
</svg>
