<svg width="41" height="45" viewBox="0 0 41 45" fill="none" xmlns="http://www.w3.org/2000/svg">
<g filter="url(#filter0_d_640_2513)">
<path d="M25 5.00033H15V1.66699H25V5.00033ZM18.3333 23.3337H21.6667V13.3337H18.3333V23.3337ZM31.6667 21.667C32.8333 21.667 33.9333 21.8837 35 22.2503V21.667C35 18.1337 33.7667 14.8837 31.7167 12.317L34.0833 9.95033C33.3333 9.10033 32.5833 8.33366 31.7333 7.60033L29.3667 10.0003C26.7833 7.90033 23.5333 6.66699 20 6.66699C16.0218 6.66699 12.2064 8.24734 9.3934 11.0604C6.58035 13.8734 5 17.6887 5 21.667C5 25.6452 6.58035 29.4605 9.3934 32.2736C12.2064 35.0866 16.0218 36.667 20 36.667C20.9833 36.667 21.9333 36.567 22.85 36.3837C22.3333 35.417 21.9667 34.3337 21.8 33.1837C21.2 33.267 20.6167 33.3337 20 33.3337C13.55 33.3337 8.33333 28.117 8.33333 21.667C8.33333 15.217 13.55 10.0003 20 10.0003C26.45 10.0003 31.6667 15.217 31.6667 21.667ZM28.3333 26.667V36.667L36.6667 31.667L28.3333 26.667Z" fill="#1BAFF9"/>
</g>
<defs>
<filter id="filter0_d_640_2513" x="-4" y="0" width="48" height="48" filterUnits="userSpaceOnUse" color-interpolation-filters="sRGB">
<feFlood flood-opacity="0" result="BackgroundImageFix"/>
<feColorMatrix in="SourceAlpha" type="matrix" values="0 0 0 0 0 0 0 0 0 0 0 0 0 0 0 0 0 0 127 0" result="hardAlpha"/>
<feOffset dy="4"/>
<feGaussianBlur stdDeviation="2"/>
<feComposite in2="hardAlpha" operator="out"/>
<feColorMatrix type="matrix" values="0 0 0 0 0 0 0 0 0 0 0 0 0 0 0 0 0 0 0.25 0"/>
<feBlend mode="normal" in2="BackgroundImageFix" result="effect1_dropShadow_640_2513"/>
<feBlend mode="normal" in="SourceGraphic" in2="effect1_dropShadow_640_2513" result="shape"/>
</filter>
</defs>
</svg>
