<svg width="41" height="41" viewBox="0 0 41 41" fill="none" xmlns="http://www.w3.org/2000/svg">
<path d="M25.3193 5.66146H15.3193V2.32812H25.3193V5.66146ZM18.6527 23.9948H21.986V13.9948H18.6527V23.9948ZM31.986 22.3281C33.1527 22.3281 34.2527 22.5448 35.3193 22.9115V22.3281C35.3193 18.7948 34.086 15.5448 32.036 12.9781L34.4027 10.6115C33.6527 9.76146 32.9027 8.99479 32.0527 8.26146L29.686 10.6615C27.1027 8.56146 23.8527 7.32812 20.3193 7.32812C16.3411 7.32812 12.5258 8.90848 9.71273 11.7215C6.89969 14.5346 5.31934 18.3499 5.31934 22.3281C5.31934 26.3064 6.89969 30.1217 9.71273 32.9347C12.5258 35.7478 16.3411 37.3281 20.3193 37.3281C21.3027 37.3281 22.2527 37.2281 23.1693 37.0448C22.6527 36.0781 22.286 34.9948 22.1193 33.8448C21.5193 33.9281 20.936 33.9948 20.3193 33.9948C13.8693 33.9948 8.65267 28.7781 8.65267 22.3281C8.65267 15.8781 13.8693 10.6615 20.3193 10.6615C26.7693 10.6615 31.986 15.8781 31.986 22.3281ZM34.486 26.4948L31.1527 29.8281L27.8193 26.4948L25.3193 28.9948L28.6527 32.3281L25.3193 35.6615L27.8193 38.1615L31.1527 34.8281L34.486 38.1615L36.986 35.6615L33.6527 32.3281L36.986 28.9948L34.486 26.4948Z" fill="#1BAFF9"/>
</svg>
